<?xml version="1.0" encoding="UTF-8"?>
<svg xmlns="http://www.w3.org/2000/svg" width="1254" height="1254" viewBox="0 0 1254 1254">
  <rect width="100%" height="100%" fill="#ffffff"/>
  <path d="
      M 796.25 678.75 L 796.25 679.75 L 796.75 680.50 L 801.75 686.00 L 804.00 689.00 L 808.00 693.25 L 811.00 697.00 L 813.25 699.25 L 817.75 704.75 L 822.75 710.00 L 826.25 714.50 L 839.75 729.75 L 843.50 734.50 L 848.00 739.25 L 851.00 743.00 L 856.50 749.00 L 859.25 752.50 L 864.00 757.50 L 864.00 757.75 L 865.75 759.50 L 865.75 759.75 L 870.75 765.25 L 874.00 769.25 L 878.25 773.75 L 879.25 775.25 L 881.75 777.75 L 885.50 782.50 L 890.00 787.25 L 893.00 791.00 L 897.00 795.25 L 899.25 798.25 L 904.00 803.25 L 908.50 808.75 L 910.75 811.00 L 913.25 814.25 L 919.75 821.25 L 919.75 821.50 L 929.50 832.50 L 931.00 834.50 L 936.00 839.75 L 941.50 846.50 L 945.00 850.25 L 948.25 854.25 L 953.00 859.25 L 955.50 862.50 L 960.25 867.50 L 963.75 871.75 L 966.75 874.75 L 966.75 875.00 L 967.75 875.75 L 969.75 878.25 L 977.25 886.00 L 977.25 886.25 L 977.50 886.25 L 977.75 886.75 L 985.00 894.00 L 985.00 894.25 L 985.25 894.25 L 985.75 895.00 L 988.00 897.00 L 988.00 897.25 L 988.25 897.25 L 993.00 902.00 L 993.25 902.00 L 1003.00 911.25 L 1003.25 911.25 L 1005.00 913.00 L 1008.00 915.25 L 1010.75 917.75 L 1014.25 920.25 L 1015.50 921.50 L 1018.00 923.25 L 1020.25 925.25 L 1025.50 928.75 L 1028.25 931.00 L 1029.50 931.50 L 1036.75 936.50 L 1037.25 936.50 L 1039.25 938.00 L 1042.25 939.50 L 1045.75 941.75 L 1047.50 942.50 L 1048.75 943.50 L 1049.25 943.50 L 1049.75 944.00 L 1056.75 947.50 L 1057.25 947.50 L 1059.50 948.75 L 1060.00 948.75 L 1062.50 950.00 L 1063.00 950.00 L 1064.75 951.00 L 1066.50 951.50 L 1068.75 952.75 L 1070.25 953.00 L 1070.75 953.50 L 1071.25 953.50 L 1072.00 954.00 L 1072.75 954.00 L 1076.50 955.75 L 1078.25 956.00 L 1079.75 956.75 L 1081.25 957.00 L 1082.75 957.75 L 1085.25 958.25 L 1087.00 959.00 L 1091.75 960.00 L 1094.75 961.00 L 1096.00 961.00 L 1097.25 961.50 L 1098.25 961.50 L 1099.50 962.00 L 1101.00 962.00 L 1101.25 962.25 L 1102.25 962.25 L 1103.50 962.75 L 1106.25 963.00 L 1106.50 963.25 L 1107.75 963.25 L 1108.00 963.50 L 1109.50 963.50 L 1109.75 963.75 L 1111.75 963.75 L 1112.00 964.00 L 1116.25 964.25 L 1116.50 964.50 L 1119.25 964.50 L 1119.50 964.75 L 1124.75 964.75 L 1125.00 965.00 L 1139.75 965.00 L 1140.00 964.75 L 1144.00 964.75 L 1144.25 964.50 L 1146.75 964.50 L 1147.00 964.25 L 1152.00 964.00 L 1152.25 963.75 L 1153.50 963.75 L 1153.75 963.50 L 1155.75 963.50 L 1156.00 963.25 L 1157.25 963.25 L 1157.50 963.00 L 1161.00 962.75 L 1161.25 962.50 L 1164.75 962.00 L 1165.00 961.75 L 1165.75 961.75 L 1168.00 961.00 L 1169.00 961.00 L 1172.00 960.00 L 1173.00 960.00 L 1174.75 959.25 L 1175.50 959.25 L 1175.75 959.00 L 1176.50 959.00 L 1178.00 958.50 L 1178.75 958.00 L 1180.25 957.75 L 1182.50 956.75 L 1184.00 956.50 L 1185.25 955.75 L 1189.00 954.50 L 1190.50 953.50 L 1190.50 952.25 L 1190.00 951.50 L 1189.75 949.25 L 1189.00 947.75 L 1189.00 946.75 L 1188.75 946.25 L 1188.00 945.75 L 1184.00 946.25 L 1182.50 946.75 L 1180.50 946.75 L 1180.25 947.00 L 1178.25 947.00 L 1178.00 947.25 L 1175.75 947.25 L 1175.50 947.50 L 1173.50 947.50 L 1173.25 947.75 L 1168.00 947.75 L 1167.75 948.00 L 1155.50 947.75 L 1155.25 947.50 L 1153.00 947.50 L 1152.75 947.25 L 1151.25 947.25 L 1151.00 947.00 L 1148.00 947.00 L 1147.75 946.75 L 1145.75 946.75 L 1145.50 946.50 L 1144.00 946.50 L 1143.75 946.25 L 1141.75 946.25 L 1141.50 946.00 L 1137.75 945.50 L 1135.50 944.75 L 1134.50 944.75 L 1134.25 944.50 L 1133.50 944.50 L 1133.25 944.25 L 1132.50 944.25 L 1132.25 944.00 L 1131.50 944.00 L 1131.25 943.75 L 1125.50 942.50 L 1122.00 941.25 L 1121.25 941.25 L 1119.25 940.25 L 1118.50 940.25 L 1117.00 939.75 L 1116.25 939.25 L 1115.00 939.00 L 1113.00 938.00 L 1110.50 937.25 L 1109.25 936.50 L 1106.75 935.75 L 1104.50 934.50 L 1104.00 934.50 L 1102.50 933.50 L 1100.50 932.50 L 1100.00 932.50 L 1099.00 931.75 L 1090.00 927.25 L 1087.50 925.50 L 1086.25 925.00 L 1084.25 923.50 L 1083.50 923.25 L 1073.75 916.75 L 1073.00 916.00 L 1071.25 915.00 L 1065.50 910.75 L 1061.50 907.25 L 1056.75 903.75 L 1052.75 900.25 L 1051.25 899.25 L 1049.25 897.25 L 1049.00 897.25 L 1047.00 895.25 L 1044.50 893.25 L 1041.50 890.25 L 1039.00 888.25 L 1036.25 885.50 L 1036.00 885.50 L 1019.25 868.50 L 1017.25 866.00 L 1012.25 860.75 L 1009.00 856.75 L 1004.25 851.75 L 996.75 842.50 L 994.25 840.00 L 994.25 839.75 L 991.50 836.75 L 990.75 835.50 L 988.00 832.50 L 987.00 831.00 L 985.25 829.25 L 984.25 827.75 L 977.75 820.00 L 977.00 818.75 L 970.25 810.75 L 969.75 809.75 L 969.75 679.25 L 969.00 678.50 L 936.25 678.50 L 935.75 679.00 L 935.50 679.75 L 935.50 681.50 L 935.75 681.75 L 935.75 682.50 L 935.50 682.75 L 935.50 684.50 L 935.75 684.75 L 935.75 701.50 L 935.50 701.75 L 935.50 714.50 L 935.75 714.75 L 935.75 715.75 L 935.50 716.00 L 935.75 716.75 L 935.50 755.50 L 935.75 755.75 L 935.75 765.00 L 935.50 765.25 L 935.50 768.00 L 935.75 768.25 L 935.75 769.00 L 935.25 769.75 L 934.25 769.25 L 933.75 768.25 L 932.00 766.50 L 929.25 763.00 L 926.75 760.50 L 925.25 758.50 L 917.25 749.75 L 910.25 741.25 L 903.50 733.75 L 901.00 730.50 L 898.25 727.75 L 891.00 719.00 L 883.25 710.50 L 880.00 706.25 L 875.25 701.25 L 872.50 697.75 L 856.00 678.75 L 855.50 678.50 L 796.50 678.50 Z
      M 582.50 675.25 L 582.00 675.50 L 581.50 676.25 L 581.50 801.25 L 581.25 801.50 L 581.25 803.25 L 581.00 803.50 L 580.75 806.50 L 580.25 807.50 L 580.00 809.25 L 579.25 810.75 L 578.75 813.00 L 577.00 816.50 L 577.00 817.00 L 574.00 822.25 L 570.75 826.25 L 568.75 828.25 L 568.75 828.50 L 562.50 833.75 L 561.75 834.00 L 558.75 836.00 L 557.50 836.50 L 557.00 837.00 L 556.50 837.00 L 554.75 838.00 L 554.25 838.00 L 552.25 839.00 L 550.75 839.25 L 549.25 840.00 L 548.25 840.00 L 548.00 840.25 L 547.00 840.25 L 545.50 840.75 L 542.00 841.00 L 541.75 841.25 L 528.00 841.25 L 527.50 841.50 L 527.25 842.00 L 527.25 848.00 L 527.50 848.50 L 528.00 848.75 L 624.25 848.75 L 624.50 849.00 L 632.50 849.00 L 632.75 848.75 L 666.00 848.75 L 666.75 848.00 L 666.75 842.25 L 666.50 841.75 L 665.75 841.25 L 649.75 841.25 L 649.50 841.00 L 646.00 840.75 L 645.00 840.25 L 643.25 840.00 L 641.75 839.25 L 640.00 839.00 L 638.75 838.25 L 637.50 838.00 L 637.00 837.50 L 631.50 834.75 L 626.50 831.00 L 622.00 826.50 L 622.00 826.25 L 621.25 825.75 L 618.25 822.00 L 616.75 819.25 L 616.25 818.75 L 615.75 817.50 L 615.25 817.00 L 615.25 816.50 L 614.25 814.75 L 614.00 813.50 L 613.25 812.25 L 613.00 810.75 L 612.25 809.50 L 612.00 807.25 L 611.25 805.50 L 611.00 801.00 L 610.75 800.75 L 610.75 676.25 L 610.50 675.75 L 609.75 675.25 Z
      M 252.50 843.00 L 252.50 849.25 L 253.00 849.75 L 253.75 850.00 L 260.75 850.00 L 261.00 850.25 L 263.50 850.25 L 263.75 850.50 L 268.00 850.75 L 268.25 851.00 L 269.75 851.00 L 270.00 851.25 L 271.50 851.25 L 271.75 851.50 L 275.25 851.75 L 275.50 852.00 L 278.00 852.25 L 278.25 852.50 L 279.75 852.50 L 280.00 852.75 L 282.50 853.00 L 284.75 853.75 L 286.25 853.75 L 288.50 854.50 L 289.75 854.50 L 292.00 855.25 L 294.25 855.50 L 295.25 856.00 L 296.00 856.00 L 296.25 856.25 L 299.00 856.75 L 300.00 857.25 L 301.75 857.50 L 302.75 858.00 L 303.50 858.00 L 306.00 859.00 L 307.75 859.25 L 309.25 860.00 L 311.75 860.50 L 313.25 861.25 L 314.00 861.25 L 319.50 863.25 L 320.25 863.25 L 322.50 864.25 L 323.25 864.25 L 325.50 865.25 L 326.25 865.25 L 330.50 867.25 L 332.00 867.50 L 335.00 869.00 L 337.00 869.50 L 338.25 870.25 L 339.50 870.50 L 340.75 871.25 L 342.00 871.50 L 345.75 873.25 L 346.50 873.25 L 348.25 874.25 L 349.50 874.50 L 350.00 875.00 L 351.25 875.25 L 353.00 876.25 L 353.50 876.25 L 355.25 877.25 L 356.50 877.50 L 357.00 878.00 L 358.25 878.25 L 362.25 880.25 L 363.00 880.25 L 364.75 881.25 L 365.50 881.25 L 367.00 882.25 L 370.00 883.25 L 373.75 885.25 L 374.25 885.25 L 381.00 888.50 L 383.25 889.25 L 384.25 890.00 L 386.25 890.75 L 386.75 891.25 L 387.25 891.25 L 389.00 892.25 L 390.00 892.50 L 391.00 893.25 L 391.50 893.25 L 396.00 895.50 L 396.50 895.50 L 397.50 896.25 L 398.00 896.25 L 401.75 898.25 L 402.25 898.25 L 403.75 899.25 L 404.25 899.25 L 405.75 900.25 L 406.25 900.25 L 410.00 902.25 L 410.50 902.25 L 412.25 903.25 L 412.75 903.25 L 413.75 904.00 L 415.50 904.50 L 416.00 905.00 L 417.50 905.50 L 425.25 909.50 L 427.50 910.25 L 429.00 911.25 L 429.50 911.25 L 434.00 913.50 L 434.50 913.50 L 435.00 914.00 L 438.00 915.50 L 438.50 915.50 L 441.00 916.75 L 441.50 917.25 L 442.50 917.50 L 443.00 918.00 L 445.00 918.75 L 445.50 919.25 L 447.25 919.75 L 447.75 920.25 L 448.25 920.25 L 449.75 921.25 L 451.50 921.75 L 452.00 922.25 L 452.50 922.25 L 454.75 923.50 L 455.25 923.50 L 456.75 924.50 L 457.25 924.50 L 457.75 925.00 L 458.25 925.00 L 460.00 926.00 L 460.50 926.00 L 461.50 926.75 L 462.00 926.75 L 463.75 927.75 L 464.25 927.75 L 465.75 928.75 L 468.00 929.50 L 471.75 931.50 L 472.25 931.50 L 476.00 933.50 L 476.50 933.50 L 478.25 934.50 L 478.75 934.50 L 482.00 936.25 L 482.50 936.25 L 483.75 937.00 L 485.50 937.50 L 488.75 939.25 L 490.50 939.75 L 494.25 941.75 L 494.75 941.75 L 498.25 943.50 L 498.75 943.50 L 503.00 945.50 L 503.50 945.50 L 504.75 946.25 L 505.25 946.25 L 507.00 947.25 L 507.50 947.25 L 511.75 949.25 L 514.75 950.25 L 517.75 951.75 L 518.50 951.75 L 522.75 953.75 L 523.50 953.75 L 524.75 954.50 L 528.50 955.75 L 531.00 957.00 L 535.00 958.25 L 537.75 959.50 L 540.50 960.25 L 541.25 960.75 L 543.25 961.25 L 544.00 961.75 L 546.00 962.25 L 546.75 962.75 L 547.50 962.75 L 548.25 963.25 L 551.00 964.00 L 551.75 964.50 L 553.25 964.75 L 554.75 965.50 L 557.75 966.25 L 558.50 966.75 L 559.50 966.75 L 561.75 967.75 L 563.25 968.00 L 565.50 969.00 L 566.25 969.00 L 567.75 969.75 L 569.50 970.00 L 571.50 971.00 L 572.50 971.00 L 574.00 971.75 L 576.00 972.00 L 578.50 973.00 L 579.50 973.00 L 581.00 973.75 L 583.25 974.00 L 585.50 975.00 L 586.50 975.00 L 589.50 976.00 L 591.00 976.00 L 593.50 977.00 L 595.00 977.00 L 595.25 977.25 L 596.00 977.25 L 596.75 977.75 L 599.25 978.00 L 602.00 979.00 L 603.50 979.00 L 606.50 980.00 L 609.00 980.25 L 611.25 981.00 L 613.25 981.00 L 613.50 981.25 L 614.25 981.25 L 616.50 982.00 L 619.75 982.25 L 621.75 983.00 L 625.50 983.25 L 625.75 983.50 L 627.75 983.75 L 628.00 984.00 L 630.00 984.00 L 630.25 984.25 L 631.75 984.25 L 632.00 984.50 L 634.50 984.75 L 634.75 985.00 L 639.50 985.25 L 639.75 985.50 L 642.50 985.75 L 642.75 986.00 L 646.25 986.00 L 646.50 986.25 L 648.25 986.25 L 648.50 986.50 L 650.25 986.50 L 650.50 986.75 L 652.75 986.75 L 653.00 987.00 L 658.00 987.00 L 658.25 987.25 L 668.00 987.50 L 668.25 987.75 L 684.00 987.75 L 684.25 987.50 L 688.50 987.50 L 688.75 987.25 L 692.25 987.25 L 692.50 987.00 L 697.50 987.00 L 697.75 986.75 L 699.50 986.75 L 699.75 986.50 L 701.50 986.50 L 701.75 986.25 L 703.50 986.25 L 703.75 986.00 L 707.00 986.00 L 708.25 985.50 L 709.75 985.50 L 710.00 985.25 L 711.50 985.25 L 711.75 985.00 L 714.00 985.00 L 716.25 984.25 L 719.50 984.00 L 719.75 983.75 L 723.00 983.25 L 723.25 983.00 L 724.75 983.00 L 727.75 982.00 L 729.00 982.00 L 730.75 981.25 L 733.25 981.00 L 736.00 980.00 L 738.25 979.75 L 740.00 979.00 L 742.00 978.75 L 743.25 978.00 L 745.25 977.75 L 746.50 977.00 L 747.50 977.00 L 749.50 976.00 L 750.50 976.00 L 752.50 975.00 L 753.50 975.00 L 754.75 974.25 L 756.25 974.00 L 758.25 973.00 L 759.50 972.75 L 760.75 972.00 L 761.50 972.00 L 763.25 971.00 L 764.50 970.75 L 765.75 970.00 L 767.00 969.75 L 770.00 968.25 L 771.25 968.00 L 773.00 967.00 L 773.50 967.00 L 780.00 963.75 L 780.50 963.75 L 781.00 963.25 L 781.50 963.25 L 784.00 961.75 L 784.50 961.75 L 785.00 961.25 L 789.75 959.00 L 793.75 956.50 L 795.50 955.75 L 796.75 954.75 L 800.25 953.00 L 800.75 952.50 L 806.50 949.25 L 807.75 948.25 L 809.75 947.25 L 812.50 945.25 L 814.50 944.25 L 816.75 942.50 L 819.25 941.00 L 821.00 939.50 L 822.75 938.50 L 823.50 937.75 L 830.75 933.00 L 835.00 929.75 L 835.00 928.75 L 834.25 928.00 L 834.00 927.00 L 832.75 924.50 L 832.25 924.00 L 832.00 922.75 L 831.75 922.50 L 830.00 922.50 L 828.25 923.50 L 823.75 925.00 L 820.75 926.50 L 819.25 926.75 L 818.00 927.50 L 816.75 927.75 L 815.25 928.50 L 814.50 928.50 L 813.75 929.00 L 811.00 929.75 L 809.50 930.50 L 808.75 930.50 L 806.25 931.50 L 805.50 931.50 L 804.00 932.25 L 803.25 932.25 L 799.75 933.50 L 799.00 933.50 L 796.75 934.50 L 795.75 934.50 L 794.00 935.25 L 792.25 935.50 L 789.50 936.50 L 787.25 936.75 L 786.25 937.25 L 784.25 937.50 L 781.50 938.50 L 780.25 938.50 L 777.25 939.50 L 775.75 939.50 L 775.50 939.75 L 774.50 939.75 L 774.25 940.00 L 773.25 940.00 L 771.75 940.50 L 770.50 940.50 L 770.25 940.75 L 769.25 940.75 L 769.00 941.00 L 768.00 941.00 L 767.75 941.25 L 766.75 941.25 L 765.25 941.75 L 763.75 941.75 L 763.50 942.00 L 762.50 942.00 L 761.00 942.50 L 759.50 942.50 L 759.25 942.75 L 757.25 942.75 L 757.00 943.00 L 751.50 943.50 L 751.25 943.75 L 749.25 943.75 L 749.00 944.00 L 746.75 944.00 L 746.50 944.25 L 745.25 944.25 L 745.00 944.50 L 742.75 944.50 L 742.50 944.75 L 740.25 944.75 L 740.00 945.00 L 737.00 945.00 L 736.75 945.25 L 729.75 945.50 L 729.50 945.75 L 705.75 946.00 L 705.50 945.75 L 700.50 945.75 L 700.25 945.50 L 697.25 945.50 L 697.00 945.25 L 692.75 945.25 L 692.50 945.00 L 686.25 944.75 L 686.00 944.50 L 684.75 944.50 L 684.50 944.25 L 682.00 944.25 L 681.75 944.00 L 679.25 944.00 L 679.00 943.75 L 676.75 943.75 L 676.50 943.50 L 674.75 943.50 L 674.50 943.25 L 672.50 943.25 L 672.25 943.00 L 668.75 942.75 L 668.50 942.50 L 666.50 942.50 L 666.25 942.25 L 664.75 942.25 L 664.50 942.00 L 663.00 942.00 L 662.75 941.75 L 658.00 941.25 L 656.50 940.75 L 653.25 940.50 L 653.00 940.25 L 651.75 940.25 L 650.25 939.75 L 647.50 939.50 L 647.25 939.25 L 646.25 939.25 L 645.00 938.75 L 643.75 938.75 L 643.50 938.50 L 642.50 938.50 L 642.25 938.25 L 641.25 938.25 L 641.00 938.00 L 640.00 938.00 L 638.50 937.50 L 637.25 937.50 L 637.00 937.25 L 636.00 937.25 L 634.50 936.75 L 633.25 936.75 L 633.00 936.50 L 632.00 936.50 L 630.75 936.00 L 629.50 936.00 L 628.25 935.50 L 623.50 934.75 L 623.25 934.50 L 621.25 934.25 L 619.00 933.50 L 618.00 933.50 L 616.00 932.75 L 615.00 932.75 L 613.75 932.25 L 611.75 932.00 L 610.75 931.50 L 608.50 931.25 L 606.50 930.50 L 604.50 930.25 L 602.50 929.50 L 601.50 929.50 L 601.25 929.25 L 599.50 929.00 L 598.50 928.50 L 596.25 928.25 L 593.50 927.25 L 592.00 927.25 L 590.50 926.50 L 588.50 926.25 L 587.00 925.50 L 585.00 925.25 L 582.50 924.25 L 579.00 923.50 L 577.25 922.75 L 576.50 922.75 L 575.50 922.25 L 574.75 922.25 L 570.25 920.75 L 569.50 920.75 L 566.50 919.75 L 565.75 919.75 L 564.75 919.25 L 563.00 919.00 L 555.50 916.50 L 554.75 916.50 L 552.25 915.50 L 550.50 915.25 L 548.00 914.25 L 547.00 914.25 L 544.50 913.25 L 543.00 913.00 L 542.25 912.50 L 541.50 912.50 L 541.25 912.25 L 540.50 912.25 L 539.00 911.75 L 538.25 911.25 L 537.25 911.25 L 528.50 908.25 L 527.75 908.25 L 525.50 907.25 L 523.50 907.00 L 522.00 906.25 L 521.25 906.25 L 517.50 905.00 L 516.75 904.50 L 515.00 904.25 L 512.75 903.25 L 511.00 903.00 L 509.50 902.25 L 508.75 902.25 L 506.25 901.25 L 505.50 901.25 L 504.75 900.75 L 503.25 900.25 L 502.50 900.25 L 501.00 899.50 L 498.00 898.75 L 497.25 898.25 L 495.50 898.00 L 494.00 897.25 L 493.00 897.25 L 491.50 896.50 L 490.00 896.25 L 488.50 895.50 L 487.00 895.25 L 486.25 894.75 L 483.25 894.00 L 482.00 893.25 L 481.00 893.25 L 479.50 892.50 L 475.75 891.25 L 475.00 891.25 L 473.50 890.50 L 472.75 890.50 L 468.25 889.00 L 467.50 888.50 L 466.00 888.25 L 465.25 887.75 L 463.75 887.25 L 463.00 887.25 L 460.75 886.25 L 459.25 886.00 L 457.75 885.25 L 456.25 885.00 L 455.50 884.50 L 452.75 883.75 L 452.00 883.25 L 451.00 883.25 L 449.50 882.50 L 447.25 882.00 L 446.00 881.25 L 444.25 881.00 L 443.00 880.25 L 441.25 880.00 L 440.50 879.50 L 439.00 879.25 L 437.50 878.50 L 436.00 878.25 L 433.75 877.25 L 433.00 877.25 L 431.75 876.50 L 429.50 876.00 L 428.25 875.25 L 427.25 875.25 L 421.75 873.25 L 421.00 873.25 L 419.50 872.50 L 418.00 872.25 L 416.50 871.50 L 415.00 871.25 L 413.50 870.50 L 412.00 870.25 L 410.50 869.50 L 409.00 869.25 L 407.50 868.50 L 406.00 868.00 L 405.25 868.00 L 404.50 867.50 L 403.00 867.25 L 400.75 866.25 L 398.25 865.75 L 397.50 865.25 L 393.25 864.00 L 391.75 863.25 L 390.75 863.25 L 386.25 861.75 L 385.50 861.25 L 383.75 861.00 L 383.00 860.50 L 381.00 860.00 L 379.50 859.25 L 378.50 859.25 L 376.25 858.25 L 374.50 858.00 L 373.75 857.50 L 371.75 857.00 L 370.50 856.25 L 369.25 856.00 L 366.75 854.75 L 366.25 854.25 L 363.75 853.00 L 360.25 850.25 L 357.50 847.50 L 355.25 844.50 L 352.00 838.00 L 352.00 837.25 L 351.00 835.00 L 351.00 834.00 L 350.00 832.00 L 350.00 830.25 L 349.75 830.00 L 349.75 829.00 L 349.00 826.75 L 349.00 824.00 L 348.75 823.75 L 348.50 819.00 L 348.25 818.75 L 348.25 675.50 L 347.25 674.75 L 345.75 674.75 L 345.50 675.00 L 308.50 675.00 L 308.00 675.50 L 308.00 683.50 L 307.75 683.75 L 307.75 685.25 L 308.00 685.50 L 307.75 685.75 L 307.75 687.25 L 308.00 687.50 L 308.00 694.50 L 307.75 694.75 L 307.75 749.50 L 308.00 749.75 L 307.75 796.00 L 307.50 796.25 L 307.50 797.50 L 307.25 797.75 L 307.00 801.00 L 306.75 801.25 L 306.00 805.00 L 305.25 806.75 L 305.00 808.50 L 304.25 810.75 L 303.50 812.00 L 303.50 812.50 L 301.75 816.25 L 298.00 822.00 L 296.25 824.00 L 295.50 825.25 L 290.00 831.00 L 286.25 834.00 L 285.50 834.25 L 283.25 836.00 L 280.75 837.25 L 280.25 837.75 L 279.25 838.00 L 277.50 839.00 L 276.25 839.25 L 274.25 840.25 L 272.25 840.50 L 271.50 841.00 L 270.75 841.00 L 270.50 841.25 L 268.50 841.25 L 268.25 841.50 L 264.25 842.00 L 264.00 842.25 L 253.25 842.25 L 252.75 842.50 Z
      M 1110.75 603.50 L 1110.00 604.25 L 1110.50 605.00 L 1112.25 605.00 L 1113.00 605.25 L 1114.50 606.25 L 1116.25 608.00 L 1118.75 611.75 L 1119.75 613.75 L 1120.75 615.00 L 1121.00 615.75 L 1122.00 617.00 L 1124.25 621.25 L 1126.50 624.50 L 1126.75 625.25 L 1129.00 628.75 L 1129.00 643.75 L 1128.50 645.25 L 1126.50 647.00 L 1125.25 647.25 L 1125.00 648.00 L 1125.75 648.50 L 1126.75 648.50 L 1127.00 648.25 L 1142.00 648.25 L 1142.50 648.50 L 1143.00 648.25 L 1143.25 647.50 L 1142.50 647.00 L 1141.75 647.00 L 1140.50 646.25 L 1139.50 645.25 L 1139.00 644.25 L 1139.00 628.00 L 1141.00 624.50 L 1142.25 623.00 L 1143.50 620.75 L 1144.50 619.50 L 1144.75 618.75 L 1145.75 617.50 L 1146.25 616.25 L 1147.50 614.75 L 1148.25 613.00 L 1149.00 612.25 L 1152.00 607.50 L 1153.00 606.50 L 1155.00 605.25 L 1157.75 604.75 L 1157.50 603.75 L 1157.00 603.50 L 1154.75 603.50 L 1154.50 603.75 L 1146.25 603.75 L 1146.00 603.50 L 1145.25 603.50 L 1144.50 604.00 L 1144.50 604.75 L 1146.00 605.25 L 1147.00 606.75 L 1146.75 608.25 L 1140.50 618.25 L 1137.75 623.50 L 1137.25 624.00 L 1136.50 624.00 L 1136.00 623.50 L 1136.00 623.00 L 1134.50 620.75 L 1134.25 620.00 L 1133.50 619.25 L 1133.50 618.75 L 1132.25 616.50 L 1130.75 614.50 L 1129.50 611.75 L 1128.50 610.25 L 1128.50 609.75 L 1127.25 607.75 L 1127.25 606.75 L 1127.50 606.25 L 1128.50 605.25 L 1130.00 604.75 L 1130.00 603.75 L 1129.75 603.50 L 1127.75 603.50 L 1127.50 603.75 L 1112.25 603.75 L 1112.00 603.50 Z
      M 989.50 603.75 L 989.25 604.50 L 989.75 605.00 L 991.00 605.00 L 991.50 605.25 L 993.25 607.00 L 993.25 635.25 L 993.75 636.25 L 994.00 638.25 L 995.00 640.00 L 995.25 641.00 L 996.50 642.75 L 998.75 645.00 L 1001.50 646.50 L 1002.00 647.00 L 1002.50 647.00 L 1004.50 648.00 L 1006.50 648.25 L 1007.50 648.75 L 1009.25 648.75 L 1009.50 649.00 L 1018.00 649.00 L 1018.25 648.75 L 1020.50 648.50 L 1023.50 647.50 L 1027.50 645.00 L 1030.00 642.25 L 1030.25 641.50 L 1031.00 640.75 L 1031.25 639.25 L 1032.00 638.25 L 1032.00 636.50 L 1032.50 635.00 L 1032.50 632.50 L 1032.75 632.25 L 1032.75 607.00 L 1033.75 605.50 L 1034.75 605.00 L 1035.75 605.00 L 1036.00 604.75 L 1036.00 603.75 L 1035.75 603.50 L 1031.50 603.50 L 1031.25 603.75 L 1026.50 603.75 L 1026.25 603.50 L 1024.50 603.50 L 1024.25 604.00 L 1024.25 604.50 L 1024.75 605.00 L 1026.50 605.25 L 1028.00 607.00 L 1028.00 633.75 L 1027.25 636.00 L 1027.00 638.50 L 1025.00 642.00 L 1021.75 644.75 L 1017.25 646.25 L 1012.75 646.00 L 1009.00 644.50 L 1008.00 643.75 L 1005.25 640.75 L 1003.75 637.50 L 1003.50 634.75 L 1003.25 634.50 L 1003.25 633.25 L 1003.00 633.00 L 1003.00 607.25 L 1004.25 605.50 L 1006.50 604.75 L 1006.50 604.00 L 1006.00 603.50 Z
      M 820.00 603.75 L 819.75 604.50 L 820.25 605.00 L 822.25 605.25 L 824.25 607.75 L 824.25 642.50 L 824.00 642.75 L 823.25 642.75 L 820.25 639.50 L 818.25 634.75 L 818.25 634.00 L 818.00 633.75 L 818.00 630.75 L 817.75 630.50 L 817.00 630.50 L 816.25 631.25 L 816.25 634.75 L 817.00 636.75 L 817.25 638.50 L 819.25 642.00 L 821.50 644.25 L 823.50 645.75 L 826.00 647.00 L 827.50 647.50 L 828.25 647.50 L 829.25 648.00 L 830.75 648.00 L 831.00 648.25 L 832.50 648.25 L 832.75 648.50 L 843.00 648.50 L 844.50 648.00 L 846.50 648.00 L 848.00 647.25 L 849.75 647.00 L 853.25 645.00 L 856.00 642.25 L 857.25 640.25 L 857.50 638.75 L 858.25 636.75 L 858.25 633.25 L 857.00 629.50 L 854.00 626.25 L 850.50 624.25 L 848.75 624.00 L 848.25 623.50 L 848.25 623.25 L 851.25 620.50 L 853.00 616.50 L 853.00 612.75 L 852.25 611.25 L 852.00 609.75 L 851.00 608.25 L 848.25 606.00 L 847.75 606.00 L 846.00 605.00 L 843.75 604.25 L 842.25 604.25 L 842.00 604.00 L 840.50 604.00 L 840.25 603.75 L 822.50 603.75 L 822.25 603.50 L 820.50 603.50 Z
      M 835.50 606.75 L 835.75 607.00 L 837.25 607.00 L 839.50 608.00 L 841.25 609.75 L 841.75 610.75 L 842.00 613.00 L 842.50 614.25 L 842.50 615.25 L 842.25 615.50 L 842.25 617.75 L 842.00 618.00 L 842.00 619.25 L 840.75 621.25 L 839.25 622.75 L 837.50 623.25 L 837.00 623.75 L 836.75 624.50 L 837.00 625.00 L 837.50 625.25 L 839.50 625.25 L 842.50 626.25 L 844.00 627.25 L 845.75 629.00 L 846.50 631.25 L 847.00 632.00 L 847.00 633.00 L 847.25 633.25 L 847.25 636.75 L 847.00 637.00 L 847.00 637.75 L 846.00 640.75 L 843.25 643.50 L 840.00 645.00 L 838.75 645.00 L 838.50 645.25 L 835.25 645.25 L 835.00 645.50 L 834.25 645.00 L 834.25 608.50 L 834.00 608.25 L 834.00 607.50 L 834.75 606.75 Z
      M 577.75 603.50 L 577.25 604.00 L 577.25 604.50 L 577.75 605.00 L 579.50 605.25 L 581.00 606.75 L 581.50 607.75 L 581.50 643.50 L 580.75 645.50 L 579.50 646.50 L 578.50 647.00 L 577.75 647.00 L 577.25 647.50 L 577.25 648.00 L 577.50 648.25 L 609.75 648.25 L 611.00 645.50 L 611.00 643.50 L 611.25 643.25 L 611.25 642.50 L 611.75 641.75 L 612.25 638.50 L 613.00 637.25 L 613.00 636.25 L 612.75 636.00 L 612.25 636.00 L 611.50 636.50 L 611.00 638.25 L 609.00 641.25 L 607.00 643.00 L 604.00 644.75 L 602.75 644.75 L 601.25 645.25 L 593.50 645.25 L 592.75 645.50 L 591.50 644.50 L 591.75 643.75 L 591.75 609.75 L 591.50 609.50 L 591.50 608.00 L 592.00 606.50 L 593.00 605.50 L 594.25 605.00 L 595.25 605.00 L 595.75 604.25 L 594.75 603.50 L 593.75 603.50 L 593.50 603.75 L 579.50 603.75 L 579.25 603.50 Z
      M 539.00 603.50 L 538.50 603.75 L 538.00 604.50 L 538.50 605.00 L 540.50 605.25 L 542.50 607.50 L 542.50 644.25 L 541.75 645.50 L 540.25 646.75 L 538.25 647.25 L 538.25 648.00 L 538.75 648.50 L 540.00 648.50 L 540.25 648.25 L 555.00 648.25 L 555.25 648.50 L 556.00 648.50 L 556.75 648.00 L 556.75 647.50 L 555.75 647.00 L 555.00 647.00 L 553.75 646.25 L 552.75 645.25 L 552.50 644.50 L 552.50 608.00 L 553.00 606.75 L 554.50 605.25 L 556.75 604.75 L 556.75 604.00 L 556.25 603.50 L 553.75 603.50 L 553.50 603.75 L 552.00 603.75 L 551.75 603.50 L 550.75 603.50 L 550.50 603.75 L 539.75 603.75 Z
      M 318.50 603.75 L 318.50 604.75 L 319.00 605.00 L 320.25 605.00 L 322.25 606.00 L 325.00 609.00 L 326.00 611.00 L 326.75 611.75 L 327.00 612.50 L 327.75 613.25 L 328.75 615.25 L 332.00 620.00 L 332.25 620.75 L 335.00 625.00 L 335.00 625.50 L 337.00 628.50 L 337.00 644.50 L 336.75 645.00 L 334.50 647.00 L 332.75 647.25 L 332.75 648.00 L 333.50 648.50 L 334.25 648.25 L 349.50 648.25 L 349.75 648.50 L 350.75 648.50 L 351.25 648.25 L 351.25 647.50 L 351.00 647.25 L 349.75 647.00 L 348.25 646.00 L 347.25 644.50 L 347.25 643.00 L 347.00 642.75 L 347.00 632.25 L 347.25 632.00 L 347.25 629.50 L 347.00 629.00 L 347.25 628.75 L 347.25 628.00 L 351.75 621.50 L 352.00 620.75 L 353.75 618.25 L 354.25 617.00 L 355.00 616.25 L 355.00 615.75 L 356.00 614.50 L 357.25 612.25 L 358.00 611.50 L 358.00 611.00 L 358.50 610.50 L 360.00 607.75 L 362.50 605.50 L 364.00 605.00 L 365.50 605.00 L 365.75 604.75 L 365.75 604.00 L 365.25 603.50 L 363.25 603.50 L 363.00 603.75 L 352.50 603.75 L 352.25 604.50 L 352.75 605.00 L 354.00 605.25 L 354.75 606.00 L 355.00 606.50 L 355.00 608.25 L 353.00 611.75 L 351.50 613.75 L 350.75 615.50 L 348.25 619.25 L 345.75 624.00 L 345.00 624.25 L 344.00 623.25 L 344.00 622.75 L 342.50 620.50 L 341.75 619.00 L 341.75 618.50 L 341.25 618.00 L 340.75 616.75 L 339.75 615.50 L 339.50 614.75 L 339.00 614.25 L 337.75 611.75 L 336.75 610.50 L 335.25 607.75 L 335.25 606.50 L 335.75 605.75 L 337.00 605.00 L 337.50 605.00 L 338.00 604.50 L 337.25 603.50 L 336.00 603.50 L 335.75 603.75 L 334.75 603.75 L 334.50 603.50 L 322.75 603.50 L 322.50 603.75 L 319.00 603.50 Z
      M 128.25 604.00 L 128.25 604.75 L 128.50 605.00 L 130.50 605.25 L 132.00 606.75 L 132.50 607.75 L 132.50 613.25 L 132.25 613.50 L 132.25 642.50 L 132.50 642.75 L 132.50 643.50 L 132.25 643.75 L 132.25 644.50 L 131.25 646.00 L 129.75 647.00 L 128.75 647.00 L 128.25 647.25 L 128.25 648.00 L 128.50 648.25 L 133.00 648.25 L 133.25 648.50 L 134.25 648.50 L 135.50 649.00 L 137.75 649.25 L 139.25 650.00 L 141.50 650.50 L 144.75 652.25 L 145.25 652.25 L 146.75 653.25 L 147.25 653.25 L 150.00 655.00 L 150.50 655.00 L 152.00 656.00 L 159.75 659.75 L 160.25 659.75 L 161.00 660.25 L 162.25 660.50 L 163.00 661.00 L 166.75 662.25 L 167.50 662.25 L 168.50 662.75 L 171.25 663.00 L 173.25 663.75 L 178.00 663.75 L 178.25 664.00 L 179.25 664.00 L 179.50 663.75 L 182.75 663.75 L 183.00 663.50 L 183.75 663.50 L 184.50 663.00 L 186.25 663.00 L 187.50 662.25 L 189.50 661.75 L 191.75 660.25 L 192.50 660.00 L 196.75 656.25 L 197.00 655.25 L 196.50 654.75 L 195.25 655.00 L 193.25 656.00 L 192.50 656.00 L 191.25 656.50 L 187.75 656.75 L 187.50 657.00 L 180.50 657.00 L 180.25 656.75 L 179.25 656.75 L 178.00 656.25 L 175.00 656.25 L 173.00 655.50 L 170.00 655.25 L 169.75 655.00 L 168.75 655.00 L 168.00 654.50 L 167.00 654.50 L 166.75 654.25 L 165.25 654.25 L 163.50 653.50 L 162.50 653.50 L 160.50 652.75 L 159.75 652.75 L 159.00 652.25 L 157.00 652.00 L 155.75 651.25 L 153.75 651.00 L 152.25 650.25 L 151.50 650.25 L 149.00 649.25 L 147.50 649.00 L 146.25 648.25 L 144.50 648.00 L 142.75 647.00 L 142.25 646.25 L 142.25 645.00 L 142.50 644.75 L 142.50 607.50 L 143.00 606.50 L 144.00 605.50 L 146.75 604.75 L 146.75 604.00 L 146.25 603.50 L 144.50 603.50 L 144.25 603.75 L 129.75 603.75 L 129.00 603.50 Z
      M 250.50 603.25 L 250.00 603.50 L 247.75 603.50 L 247.50 603.75 L 247.00 603.50 L 244.00 603.50 L 243.75 603.75 L 235.00 603.75 L 234.75 603.50 L 233.75 603.50 L 233.00 604.00 L 233.00 604.75 L 233.25 605.00 L 235.25 605.25 L 236.75 606.75 L 237.25 607.75 L 237.25 643.25 L 237.00 643.50 L 237.00 644.50 L 236.00 646.00 L 234.50 647.00 L 233.50 647.00 L 232.75 647.50 L 233.00 648.25 L 233.50 648.50 L 234.50 648.50 L 234.75 648.25 L 250.00 648.25 L 250.75 648.50 L 251.25 648.25 L 251.25 647.25 L 250.75 647.00 L 249.75 647.00 L 249.25 646.50 L 248.50 646.25 L 247.50 645.25 L 247.25 644.75 L 247.25 643.75 L 247.00 643.50 L 247.00 608.00 L 247.50 606.75 L 248.75 605.50 L 249.75 605.00 L 251.00 605.00 L 251.50 604.75 L 251.50 603.75 Z
      M 951.00 603.00 L 950.50 603.75 L 950.50 604.50 L 949.25 606.75 L 948.50 609.25 L 947.50 611.00 L 947.50 611.50 L 946.75 612.50 L 946.50 613.75 L 943.75 619.50 L 943.50 620.75 L 942.50 622.50 L 942.50 623.00 L 941.50 624.75 L 941.50 625.25 L 940.50 626.75 L 940.50 627.25 L 939.50 629.00 L 938.75 631.25 L 937.50 633.50 L 937.00 635.25 L 935.25 638.50 L 935.25 639.00 L 934.25 640.75 L 934.25 641.25 L 933.25 643.00 L 932.75 644.50 L 931.75 645.75 L 930.25 646.75 L 928.25 647.25 L 928.25 648.25 L 939.00 648.25 L 939.25 648.50 L 940.50 648.25 L 940.75 647.50 L 940.25 647.00 L 938.75 646.50 L 938.00 645.75 L 937.75 644.75 L 938.50 643.25 L 938.75 642.00 L 940.50 638.50 L 941.00 636.75 L 942.25 635.75 L 955.75 635.75 L 956.50 636.50 L 957.00 638.50 L 959.75 644.25 L 959.50 645.50 L 958.25 646.75 L 956.75 647.25 L 956.75 648.00 L 957.25 648.50 L 958.75 648.50 L 959.00 648.25 L 973.75 648.25 L 974.00 648.50 L 975.75 648.50 L 976.50 648.00 L 976.25 647.25 L 974.75 647.00 L 973.50 646.25 L 973.00 646.25 L 971.00 644.50 L 971.00 644.00 L 970.00 642.25 L 970.00 641.75 L 969.00 640.25 L 968.75 639.00 L 967.75 637.25 L 967.75 636.75 L 967.00 635.75 L 967.00 635.00 L 966.00 633.25 L 966.00 632.75 L 965.50 632.25 L 964.75 630.00 L 964.25 629.50 L 963.00 627.00 L 963.00 626.25 L 961.75 624.25 L 961.75 623.75 L 959.75 619.75 L 959.75 619.25 L 958.75 617.50 L 958.75 617.00 L 957.75 615.25 L 957.75 614.75 L 957.25 614.25 L 956.75 612.75 L 956.25 612.25 L 956.00 611.25 L 955.00 609.50 L 955.00 609.00 L 954.00 607.50 L 954.00 606.75 L 953.00 605.25 L 952.75 604.00 L 952.00 603.00 Z
      M 948.50 619.25 L 949.00 619.25 L 949.50 619.75 L 949.75 621.25 L 950.75 622.75 L 951.50 625.25 L 952.00 625.75 L 952.00 626.25 L 952.50 627.00 L 952.75 628.25 L 954.75 631.75 L 954.75 632.25 L 953.75 633.00 L 953.00 633.00 L 952.75 632.75 L 943.75 632.75 L 943.00 632.00 L 945.00 628.25 L 945.00 627.75 L 945.75 626.50 L 946.50 624.00 L 947.75 621.75 L 948.00 620.00 Z
      M 412.25 603.00 L 411.75 603.50 L 411.75 644.50 L 410.25 646.25 L 409.00 647.00 L 407.75 647.25 L 407.50 648.00 L 407.75 648.25 L 423.75 648.25 L 424.00 648.50 L 424.75 648.50 L 425.50 648.00 L 425.25 647.25 L 424.75 647.00 L 423.75 647.00 L 422.75 646.50 L 421.50 645.25 L 421.00 644.25 L 421.00 619.75 L 421.25 619.50 L 422.00 619.50 L 437.25 634.25 L 437.50 634.25 L 439.25 636.25 L 439.50 636.25 L 445.75 642.25 L 446.00 642.25 L 452.50 648.75 L 453.50 648.75 L 453.75 647.75 L 453.25 646.50 L 453.50 646.00 L 453.50 608.25 L 453.25 608.00 L 453.75 606.75 L 455.25 605.25 L 457.50 604.75 L 457.75 604.50 L 457.50 603.75 L 457.00 603.50 L 455.25 603.50 L 455.00 603.75 L 441.75 603.75 L 441.50 603.50 L 440.50 603.50 L 439.75 604.00 L 439.75 604.75 L 440.00 605.00 L 441.50 605.00 L 442.25 605.25 L 443.75 606.75 L 444.25 607.75 L 444.25 626.25 L 444.00 626.50 L 444.00 630.50 L 444.25 630.75 L 444.25 632.00 L 443.50 632.50 L 443.00 632.25 L 442.25 631.25 L 441.00 630.50 L 428.25 618.00 L 428.00 618.00 L 425.00 615.00 L 424.75 615.00 L 412.75 603.00 Z
      M 1054.00 602.75 L 1053.75 603.25 L 1053.75 612.75 L 1054.00 613.00 L 1054.75 613.00 L 1055.00 612.75 L 1055.00 611.75 L 1055.25 611.50 L 1055.25 610.50 L 1056.00 609.50 L 1056.25 608.75 L 1058.25 607.00 L 1059.75 607.00 L 1060.75 606.50 L 1068.75 606.50 L 1069.75 607.25 L 1069.75 643.50 L 1069.50 643.75 L 1069.25 645.25 L 1067.25 647.00 L 1065.75 647.25 L 1065.50 648.00 L 1065.75 648.25 L 1081.75 648.25 L 1082.00 648.50 L 1083.50 648.50 L 1084.00 648.00 L 1084.00 647.50 L 1081.75 646.75 L 1080.00 645.00 L 1079.50 643.75 L 1079.50 607.00 L 1080.00 606.50 L 1088.25 606.50 L 1088.50 606.75 L 1090.00 606.75 L 1091.00 607.25 L 1092.75 608.75 L 1093.75 611.00 L 1093.75 612.50 L 1094.25 613.25 L 1095.00 613.25 L 1095.25 613.00 L 1095.25 603.25 L 1094.75 602.75 L 1093.75 602.75 L 1093.50 603.00 L 1091.50 603.00 L 1091.25 603.25 L 1089.75 603.25 L 1089.50 603.50 L 1060.75 603.75 L 1059.50 603.25 L 1057.00 603.25 L 1056.75 603.00 Z
      M 908.75 602.75 L 906.75 603.00 L 906.50 603.25 L 904.00 603.25 L 903.75 603.50 L 889.50 603.50 L 889.25 603.75 L 880.25 603.75 L 880.00 603.50 L 877.75 603.50 L 877.50 603.75 L 877.50 604.75 L 877.75 605.00 L 879.50 605.00 L 880.00 605.25 L 882.00 607.50 L 882.00 643.75 L 881.25 645.50 L 880.50 646.25 L 879.25 647.00 L 877.75 647.25 L 877.50 647.50 L 877.75 648.25 L 878.25 648.50 L 879.00 648.25 L 909.75 648.25 L 910.25 647.75 L 910.75 645.75 L 911.25 645.00 L 911.25 643.75 L 911.50 643.50 L 911.75 641.50 L 912.25 640.50 L 912.25 639.25 L 913.25 637.00 L 913.25 636.50 L 912.75 636.00 L 912.00 636.00 L 911.50 636.50 L 911.00 638.25 L 909.75 640.25 L 906.75 643.25 L 905.25 644.25 L 903.75 644.50 L 902.75 645.00 L 901.75 645.00 L 901.50 645.25 L 892.50 645.25 L 891.75 644.50 L 891.75 628.50 L 892.75 627.50 L 893.75 627.50 L 894.00 627.75 L 902.00 627.75 L 904.25 629.75 L 904.50 630.50 L 905.00 631.00 L 905.25 632.50 L 905.50 632.75 L 906.25 632.75 L 906.50 632.25 L 906.50 630.50 L 906.25 630.25 L 906.25 623.25 L 906.50 623.00 L 906.50 620.00 L 906.00 619.50 L 905.25 619.75 L 905.00 621.00 L 904.25 622.50 L 902.50 624.25 L 901.25 624.75 L 900.75 624.50 L 899.00 624.50 L 898.75 624.75 L 892.50 624.75 L 891.75 624.00 L 891.75 607.50 L 892.00 607.00 L 892.75 606.50 L 903.25 606.50 L 906.00 607.50 L 907.00 608.50 L 908.00 611.25 L 908.00 612.50 L 908.50 613.25 L 909.25 613.25 L 909.50 613.00 L 909.50 603.50 Z
      M 640.25 603.25 L 639.00 604.00 L 637.75 604.25 L 635.75 605.75 L 634.00 607.50 L 632.75 610.00 L 632.25 610.50 L 632.25 612.00 L 631.75 613.50 L 631.75 617.50 L 632.00 617.75 L 632.25 619.75 L 633.75 622.25 L 636.75 625.00 L 637.50 625.25 L 638.25 626.00 L 639.00 626.25 L 642.00 628.25 L 642.75 629.00 L 643.75 629.25 L 646.00 631.00 L 648.50 632.25 L 653.00 635.75 L 654.00 637.75 L 654.00 641.00 L 652.75 643.25 L 651.00 645.00 L 650.00 645.25 L 649.25 645.75 L 647.50 646.00 L 647.25 646.25 L 643.75 646.25 L 643.50 646.00 L 641.25 645.75 L 639.75 645.25 L 638.50 644.25 L 637.75 644.00 L 637.25 643.25 L 637.00 643.25 L 636.25 642.25 L 635.50 641.75 L 634.25 639.50 L 634.25 638.75 L 633.50 637.50 L 633.25 635.00 L 632.50 634.50 L 632.00 635.25 L 632.00 636.50 L 631.25 638.25 L 631.25 640.25 L 630.50 642.25 L 630.75 644.25 L 631.25 645.25 L 633.50 647.00 L 634.50 647.50 L 635.25 647.50 L 639.00 648.75 L 640.25 648.75 L 640.50 649.00 L 649.00 649.00 L 650.25 648.50 L 652.50 648.25 L 653.75 647.50 L 655.25 647.00 L 657.75 645.25 L 659.25 643.75 L 661.00 641.00 L 661.25 640.25 L 661.25 638.75 L 661.75 637.75 L 661.75 633.75 L 661.50 633.50 L 661.50 632.50 L 661.25 632.25 L 661.00 630.75 L 659.00 627.75 L 657.25 626.25 L 656.50 626.00 L 654.25 624.25 L 652.00 623.00 L 651.25 622.25 L 650.50 622.00 L 649.25 621.00 L 647.25 620.00 L 646.50 619.25 L 645.75 619.00 L 644.50 618.00 L 642.25 616.75 L 640.25 614.75 L 639.50 613.00 L 639.50 611.50 L 640.50 609.00 L 641.50 607.75 L 643.75 606.25 L 645.75 606.00 L 646.00 605.75 L 649.50 605.75 L 649.75 606.00 L 652.00 606.25 L 653.50 607.00 L 655.75 609.50 L 656.00 610.00 L 656.00 611.00 L 656.25 611.25 L 656.25 612.25 L 656.50 612.50 L 657.50 612.50 L 657.75 612.00 L 657.75 608.75 L 658.25 607.25 L 658.25 604.00 L 658.00 603.50 L 657.50 603.25 L 652.25 603.25 L 652.00 603.00 L 650.50 603.00 L 650.25 602.75 L 643.50 602.75 L 643.25 603.00 Z
      M 496.25 603.00 L 495.75 604.75 L 494.25 608.00 L 494.25 608.50 L 490.50 616.25 L 490.50 616.75 L 489.75 618.00 L 489.75 618.50 L 489.25 619.25 L 488.25 622.25 L 487.25 624.00 L 487.25 624.50 L 486.25 626.25 L 486.25 626.75 L 485.25 628.25 L 484.25 631.25 L 482.50 634.50 L 482.50 635.00 L 480.50 639.25 L 480.25 640.50 L 479.25 642.00 L 479.25 642.50 L 478.50 643.50 L 478.25 644.50 L 476.50 646.25 L 476.00 646.25 L 475.00 647.00 L 473.75 647.00 L 473.25 647.50 L 473.25 648.00 L 473.50 648.25 L 484.25 648.25 L 484.50 648.50 L 485.50 648.50 L 486.00 648.25 L 486.00 647.25 L 484.75 646.75 L 483.25 645.25 L 483.25 644.25 L 484.50 642.00 L 484.75 641.00 L 485.25 640.50 L 486.50 636.75 L 487.25 636.00 L 487.75 635.75 L 501.00 635.75 L 501.50 636.00 L 502.25 637.00 L 502.50 638.50 L 503.50 640.25 L 503.50 640.75 L 505.25 644.50 L 505.00 645.50 L 503.75 646.75 L 502.50 647.25 L 502.50 648.00 L 502.75 648.25 L 520.00 648.25 L 520.25 648.50 L 521.25 648.25 L 521.50 648.00 L 521.25 647.25 L 520.00 647.00 L 517.75 645.75 L 516.50 644.25 L 515.75 642.75 L 515.75 642.25 L 512.75 636.25 L 512.75 635.75 L 510.50 631.00 L 510.50 630.50 L 508.50 626.75 L 508.50 626.25 L 506.50 622.50 L 506.50 622.00 L 505.25 620.00 L 504.50 617.50 L 502.75 614.25 L 502.25 612.75 L 501.25 611.25 L 501.25 610.75 L 500.25 609.00 L 500.25 608.50 L 499.75 608.00 L 499.50 607.00 L 498.25 604.75 L 498.25 604.00 L 497.50 603.00 L 497.00 602.75 Z
      M 494.25 619.25 L 494.75 619.25 L 495.25 619.75 L 495.50 621.25 L 496.00 622.00 L 496.50 624.00 L 497.50 625.75 L 497.50 626.25 L 499.25 629.75 L 499.25 630.25 L 500.25 631.75 L 499.50 632.75 L 489.00 632.75 L 488.50 632.25 L 488.50 631.50 L 489.00 631.00 L 491.25 626.25 L 491.25 625.75 L 492.25 624.25 L 493.75 619.75 Z
      M 298.50 603.25 L 293.75 603.25 L 293.50 603.00 L 290.75 603.00 L 290.50 602.75 L 286.00 602.75 L 285.75 603.00 L 281.75 603.25 L 281.50 603.50 L 280.75 603.50 L 279.50 604.25 L 279.00 604.25 L 278.50 604.75 L 277.75 605.00 L 275.25 607.25 L 274.25 608.75 L 274.25 609.25 L 273.25 611.00 L 273.25 612.75 L 273.00 613.00 L 273.00 618.25 L 274.25 621.50 L 275.25 622.75 L 277.75 625.00 L 280.25 626.50 L 281.00 627.25 L 283.50 628.50 L 287.25 631.00 L 288.50 631.50 L 290.75 633.25 L 292.50 634.25 L 293.50 635.25 L 294.75 637.25 L 295.25 640.25 L 293.75 643.25 L 291.75 645.00 L 290.25 645.75 L 288.25 646.00 L 288.00 646.25 L 286.75 646.25 L 286.50 646.50 L 283.00 646.00 L 282.75 645.75 L 281.25 645.50 L 279.75 644.75 L 276.25 641.50 L 275.25 639.75 L 275.25 639.00 L 274.50 637.25 L 274.75 635.75 L 274.25 635.00 L 273.50 635.00 L 272.50 637.25 L 272.50 638.75 L 272.25 639.00 L 272.25 640.00 L 271.75 641.50 L 271.75 644.00 L 272.75 646.00 L 273.75 646.75 L 276.75 648.00 L 277.50 648.00 L 279.75 648.75 L 280.75 648.75 L 281.00 649.00 L 289.75 649.00 L 291.00 648.50 L 292.50 648.50 L 296.50 646.75 L 297.00 646.25 L 297.75 646.00 L 301.50 642.00 L 302.25 640.50 L 302.25 639.75 L 302.75 638.50 L 302.75 633.00 L 302.50 632.75 L 302.00 630.25 L 301.25 629.00 L 298.75 626.50 L 297.75 626.00 L 297.00 625.25 L 296.25 625.00 L 295.50 624.25 L 294.75 624.00 L 294.00 623.25 L 293.25 623.00 L 292.00 622.00 L 290.00 621.00 L 287.75 619.25 L 286.50 618.75 L 284.50 617.25 L 283.75 617.00 L 281.25 614.75 L 280.50 613.00 L 280.50 611.00 L 281.50 608.75 L 283.25 607.00 L 285.25 606.00 L 286.25 606.00 L 286.50 605.75 L 292.00 606.00 L 293.25 606.75 L 295.00 607.25 L 296.00 608.25 L 297.00 610.00 L 297.50 612.50 L 297.75 612.75 L 298.75 612.50 L 299.00 611.75 L 299.00 608.00 L 299.50 606.75 L 299.50 604.50 Z
      M 209.75 603.00 L 208.50 602.75 L 208.25 603.00 L 204.00 603.25 L 203.75 603.50 L 194.00 603.50 L 193.75 603.75 L 186.25 603.75 L 186.00 603.50 L 184.75 603.50 L 184.50 603.75 L 181.00 603.75 L 180.75 603.50 L 178.25 603.50 L 178.00 604.75 L 178.25 605.00 L 179.50 605.00 L 180.75 605.50 L 182.00 607.00 L 182.25 607.75 L 182.25 644.50 L 180.50 646.50 L 179.75 647.00 L 179.00 647.00 L 178.00 647.50 L 178.00 648.00 L 178.50 648.50 L 179.75 648.50 L 180.00 648.25 L 210.25 648.25 L 211.00 647.75 L 211.25 647.00 L 211.25 645.50 L 212.00 644.25 L 212.00 642.25 L 213.00 639.75 L 213.00 638.75 L 213.50 637.25 L 213.50 636.25 L 213.25 636.00 L 212.50 636.00 L 212.25 636.25 L 212.00 637.25 L 210.00 640.75 L 206.25 644.25 L 203.75 644.75 L 202.75 645.25 L 192.75 645.25 L 192.25 644.75 L 192.25 628.50 L 193.00 627.50 L 197.75 627.50 L 198.00 627.75 L 200.25 627.50 L 200.50 627.75 L 202.25 627.75 L 203.25 628.25 L 204.25 629.25 L 205.25 631.00 L 205.50 632.50 L 206.00 633.00 L 206.75 633.00 L 207.00 632.75 L 207.00 620.00 L 206.75 619.75 L 206.00 619.75 L 205.25 620.75 L 205.25 621.50 L 204.75 622.50 L 203.50 623.75 L 202.00 624.50 L 200.75 624.50 L 200.50 624.75 L 193.25 624.75 L 192.25 624.00 L 192.25 607.00 L 192.75 606.50 L 203.50 606.50 L 204.50 607.00 L 205.25 607.00 L 206.50 607.75 L 208.00 609.50 L 208.50 611.00 L 208.50 612.25 L 209.00 613.25 L 210.00 613.25 L 210.00 603.25 Z
      M 723.25 608.00 L 722.25 609.75 L 722.25 610.50 L 721.50 612.00 L 721.50 616.75 L 722.25 618.50 L 722.25 619.25 L 723.75 621.50 L 723.75 622.00 L 722.75 623.00 L 719.75 625.00 L 717.25 627.75 L 715.50 631.25 L 715.50 632.75 L 715.00 634.00 L 715.25 637.75 L 716.25 639.75 L 716.25 640.25 L 717.25 641.75 L 721.00 645.25 L 722.75 646.25 L 723.25 646.25 L 724.50 647.00 L 726.75 647.75 L 727.75 647.75 L 728.00 648.00 L 730.00 648.25 L 730.25 648.50 L 732.50 648.50 L 734.00 649.00 L 739.75 649.00 L 741.25 648.50 L 743.25 648.50 L 746.00 647.50 L 748.75 647.00 L 749.25 646.50 L 750.50 646.50 L 755.50 650.25 L 756.50 651.25 L 760.75 654.00 L 765.25 656.25 L 767.00 656.50 L 767.75 657.00 L 769.25 657.25 L 769.50 657.50 L 771.50 657.50 L 771.75 657.75 L 773.00 657.75 L 773.25 658.00 L 780.00 658.00 L 780.25 657.75 L 782.00 657.75 L 783.00 657.25 L 785.25 657.00 L 786.50 656.25 L 787.25 656.25 L 788.25 655.50 L 789.75 655.00 L 789.75 654.00 L 789.50 653.75 L 788.00 653.75 L 787.75 654.00 L 786.50 654.00 L 786.25 654.25 L 784.25 654.25 L 784.00 654.00 L 782.75 654.00 L 781.75 653.50 L 779.75 653.50 L 776.00 652.25 L 767.75 648.00 L 767.00 647.25 L 766.25 647.00 L 765.50 646.25 L 761.75 643.75 L 758.25 640.50 L 761.75 635.50 L 764.00 630.75 L 764.50 629.25 L 764.50 628.50 L 764.75 628.25 L 764.75 627.50 L 765.50 625.50 L 765.75 619.50 L 765.25 618.00 L 765.00 615.25 L 764.00 613.00 L 763.75 611.75 L 762.75 609.75 L 760.50 606.50 L 755.50 601.75 L 754.00 601.00 L 752.75 600.00 L 752.00 599.75 L 751.25 599.75 L 751.00 600.00 L 751.00 600.75 L 751.50 601.25 L 752.00 601.25 L 756.00 604.25 L 757.50 605.75 L 759.75 608.75 L 762.00 614.00 L 762.00 615.75 L 762.25 616.00 L 762.25 617.00 L 762.75 618.25 L 762.75 622.50 L 762.00 624.50 L 761.75 627.50 L 760.75 629.25 L 760.75 630.00 L 759.75 632.50 L 758.50 634.00 L 757.00 636.50 L 755.50 638.00 L 754.50 637.75 L 749.50 633.25 L 744.75 629.50 L 739.00 624.00 L 736.75 622.25 L 732.50 617.50 L 732.50 617.00 L 731.75 615.50 L 731.75 611.25 L 732.50 609.25 L 734.50 607.00 L 736.25 606.00 L 737.50 606.00 L 737.75 605.75 L 738.50 605.75 L 738.75 606.00 L 740.75 606.00 L 744.00 607.75 L 745.50 609.25 L 746.75 612.50 L 746.75 613.25 L 747.00 613.50 L 747.00 615.25 L 747.25 615.50 L 748.25 615.50 L 748.75 614.75 L 748.75 613.00 L 749.00 612.75 L 749.00 611.50 L 749.25 611.25 L 749.25 607.50 L 748.25 606.00 L 745.50 604.25 L 744.00 604.00 L 742.50 603.25 L 739.00 603.00 L 738.75 602.75 L 734.75 602.75 L 734.50 603.00 L 732.50 603.00 L 732.25 603.25 L 731.25 603.25 L 731.00 603.50 L 730.00 603.50 L 728.50 604.00 L 725.50 605.75 Z
      M 727.25 627.75 L 728.25 627.00 L 728.75 627.25 L 729.25 628.00 L 736.00 634.50 L 736.25 634.50 L 736.75 635.25 L 737.00 635.25 L 739.00 637.25 L 740.50 638.25 L 743.75 641.25 L 746.25 643.00 L 746.75 643.75 L 746.00 644.50 L 744.50 644.75 L 744.25 645.00 L 743.00 645.00 L 742.75 645.25 L 741.75 645.25 L 740.50 645.75 L 737.00 645.75 L 736.75 645.50 L 735.75 645.50 L 735.50 645.25 L 734.00 645.00 L 733.50 644.50 L 732.50 644.25 L 730.50 643.00 L 729.00 641.50 L 727.50 639.50 L 726.25 635.75 L 726.25 632.50 L 726.00 632.25 L 726.00 631.25 L 726.25 631.00 L 726.25 630.25 L 726.75 628.75 L 727.25 628.25 Z
      M 882.50 393.25 L 881.75 394.00 L 881.75 400.25 L 882.50 401.00 L 895.50 401.00 L 901.75 402.00 L 908.50 404.25 L 915.50 408.25 L 920.25 412.00 L 927.25 419.50 L 932.50 428.75 L 934.25 433.25 L 935.75 441.50 L 935.50 575.75 L 936.25 577.00 L 968.75 577.00 L 969.75 576.25 L 969.75 443.75 L 971.75 433.50 L 973.75 428.25 L 977.25 422.00 L 982.00 415.75 L 988.00 410.00 L 995.25 405.25 L 1003.00 402.25 L 1009.25 401.00 L 1022.75 401.00 L 1023.50 400.00 L 1023.25 393.75 L 1022.75 393.25 Z
      M 254.50 393.50 L 254.25 400.25 L 255.00 401.00 L 268.00 401.00 L 275.25 402.25 L 284.75 406.25 L 292.00 411.25 L 297.25 416.50 L 302.00 423.00 L 304.75 428.50 L 307.00 435.00 L 308.00 442.75 L 308.00 577.25 L 309.00 577.75 L 348.00 577.25 L 348.25 444.25 L 350.00 434.75 L 352.00 428.75 L 355.25 422.50 L 360.25 416.00 L 366.00 410.50 L 374.25 405.25 L 382.00 402.25 L 388.75 401.00 L 401.00 401.00 L 401.75 400.25 L 401.75 393.75 L 401.00 393.25 Z
      M 376.25 322.75 L 376.00 323.50 L 378.25 328.50 L 379.25 329.50 L 390.00 326.50 L 405.75 324.00 L 419.25 323.50 L 433.75 324.75 L 444.00 326.75 L 452.75 329.50 L 462.25 333.25 L 470.50 337.25 L 481.50 343.75 L 492.75 351.50 L 505.00 361.25 L 516.75 371.75 L 536.25 391.50 L 550.75 407.75 L 567.25 427.75 L 580.00 444.00 L 581.75 447.00 L 581.75 577.50 L 610.00 577.75 L 610.75 577.00 L 611.00 480.25 L 612.25 480.75 L 658.25 533.00 L 697.75 576.75 L 761.75 576.50 L 761.75 575.50 L 691.25 497.00 L 592.50 388.25 L 576.50 372.00 L 562.25 358.50 L 544.25 343.25 L 530.50 333.25 L 510.50 321.25 L 493.50 313.50 L 476.50 308.25 L 467.25 306.50 L 453.75 305.00 L 443.00 304.75 L 429.75 305.50 L 412.25 308.50 L 401.00 311.50 L 390.00 315.50 L 381.00 319.75 Z
  " fill="#111111" fill-rule="evenodd"/>
</svg>
